<mxfile host="app.diagrams.net" agent="Mozilla/5.0 (Windows NT 10.0; Win64; x64) AppleWebKit/537.36 (KHTML, like Gecko) Chrome/140.0.0.0 Safari/537.36" version="28.2.4">
  <diagram name="Page-1" id="4G7Jrc24bYsF_OHOj2GN">
    <mxGraphModel dx="910" dy="783" grid="1" gridSize="10" guides="1" tooltips="1" connect="1" arrows="1" fold="1" page="1" pageScale="1" pageWidth="850" pageHeight="1100" math="0" shadow="0">
      <root>
        <mxCell id="0" />
        <mxCell id="1" parent="0" />
        <mxCell id="uTEQr7bpH9WWDBuf_HfT-5" value="" style="ellipse;shape=cloud;whiteSpace=wrap;html=1;" parent="1" vertex="1">
          <mxGeometry x="35" y="190" width="780" height="190" as="geometry" />
        </mxCell>
        <mxCell id="uTEQr7bpH9WWDBuf_HfT-12" value="" style="endArrow=none;html=1;rounded=0;entryX=0.5;entryY=1;entryDx=0;entryDy=0;entryPerimeter=0;exitX=0.5;exitY=0;exitDx=0;exitDy=0;exitPerimeter=0;" parent="1" source="uTEQr7bpH9WWDBuf_HfT-15" target="uTEQr7bpH9WWDBuf_HfT-3" edge="1">
          <mxGeometry width="50" height="50" relative="1" as="geometry">
            <mxPoint x="644" y="400" as="sourcePoint" />
            <mxPoint x="643.5" y="311.5" as="targetPoint" />
          </mxGeometry>
        </mxCell>
        <mxCell id="uTEQr7bpH9WWDBuf_HfT-11" value="" style="endArrow=none;html=1;rounded=0;entryX=0.5;entryY=1;entryDx=0;entryDy=0;entryPerimeter=0;exitX=0.5;exitY=0;exitDx=0;exitDy=0;exitPerimeter=0;" parent="1" source="uTEQr7bpH9WWDBuf_HfT-13" target="uTEQr7bpH9WWDBuf_HfT-1" edge="1">
          <mxGeometry width="50" height="50" relative="1" as="geometry">
            <mxPoint x="214" y="400" as="sourcePoint" />
            <mxPoint x="213.5" y="380" as="targetPoint" />
          </mxGeometry>
        </mxCell>
        <mxCell id="uTEQr7bpH9WWDBuf_HfT-10" value="" style="endArrow=none;html=1;rounded=0;entryX=0.5;entryY=1;entryDx=0;entryDy=0;entryPerimeter=0;exitX=0.5;exitY=0;exitDx=0;exitDy=0;exitPerimeter=0;" parent="1" source="uTEQr7bpH9WWDBuf_HfT-14" target="uTEQr7bpH9WWDBuf_HfT-2" edge="1">
          <mxGeometry width="50" height="50" relative="1" as="geometry">
            <mxPoint x="430" y="400" as="sourcePoint" />
            <mxPoint x="460" y="250" as="targetPoint" />
          </mxGeometry>
        </mxCell>
        <mxCell id="uTEQr7bpH9WWDBuf_HfT-1" value="&lt;span style=&quot;background-color: light-dark(#ffffff, var(--ge-dark-color, #121212));&quot;&gt;Asheville&lt;/span&gt;" style="shape=mxgraph.cisco.routers.router;sketch=0;html=1;pointerEvents=1;dashed=0;fillColor=#ffcc99;strokeColor=#36393d;strokeWidth=2;verticalLabelPosition=bottom;verticalAlign=top;align=center;outlineConnect=0;" parent="1" vertex="1">
          <mxGeometry x="175" y="258.5" width="78" height="53" as="geometry" />
        </mxCell>
        <mxCell id="uTEQr7bpH9WWDBuf_HfT-2" value="&lt;span style=&quot;background-color: light-dark(#ffffff, var(--ge-dark-color, #121212));&quot;&gt;HQ&lt;/span&gt;" style="shape=mxgraph.cisco.routers.router;sketch=0;html=1;pointerEvents=1;dashed=0;fillColor=#ffcc99;strokeColor=#36393d;strokeWidth=2;verticalLabelPosition=bottom;verticalAlign=top;align=center;outlineConnect=0;" parent="1" vertex="1">
          <mxGeometry x="391" y="258.5" width="78" height="53" as="geometry" />
        </mxCell>
        <mxCell id="uTEQr7bpH9WWDBuf_HfT-3" value="&lt;span style=&quot;background-color: light-dark(#ffffff, var(--ge-dark-color, #121212));&quot;&gt;DR&lt;/span&gt;" style="shape=mxgraph.cisco.routers.router;sketch=0;html=1;pointerEvents=1;dashed=0;fillColor=#ffcc99;strokeColor=#36393d;strokeWidth=2;verticalLabelPosition=bottom;verticalAlign=top;align=center;outlineConnect=0;" parent="1" vertex="1">
          <mxGeometry x="605" y="258.5" width="78" height="53" as="geometry" />
        </mxCell>
        <mxCell id="uTEQr7bpH9WWDBuf_HfT-6" value="External BGEA BGP AS#&lt;div&gt;&lt;br&gt;&lt;/div&gt;" style="text;html=1;align=center;verticalAlign=middle;whiteSpace=wrap;rounded=0;" parent="1" vertex="1">
          <mxGeometry x="355" y="230" width="140" height="28.5" as="geometry" />
        </mxCell>
        <mxCell id="uTEQr7bpH9WWDBuf_HfT-8" style="edgeStyle=orthogonalEdgeStyle;rounded=0;orthogonalLoop=1;jettySize=auto;html=1;exitX=0;exitY=0.5;exitDx=0;exitDy=0;exitPerimeter=0;entryX=1;entryY=0.5;entryDx=0;entryDy=0;entryPerimeter=0;endArrow=none;endFill=0;" parent="1" source="uTEQr7bpH9WWDBuf_HfT-2" target="uTEQr7bpH9WWDBuf_HfT-1" edge="1">
          <mxGeometry relative="1" as="geometry" />
        </mxCell>
        <mxCell id="uTEQr7bpH9WWDBuf_HfT-9" style="edgeStyle=orthogonalEdgeStyle;rounded=0;orthogonalLoop=1;jettySize=auto;html=1;exitX=0;exitY=0.5;exitDx=0;exitDy=0;exitPerimeter=0;entryX=1;entryY=0.5;entryDx=0;entryDy=0;entryPerimeter=0;endArrow=none;endFill=0;" parent="1" source="uTEQr7bpH9WWDBuf_HfT-3" target="uTEQr7bpH9WWDBuf_HfT-2" edge="1">
          <mxGeometry relative="1" as="geometry">
            <mxPoint x="605" y="284.5" as="sourcePoint" />
            <mxPoint x="467" y="284.5" as="targetPoint" />
          </mxGeometry>
        </mxCell>
        <mxCell id="uTEQr7bpH9WWDBuf_HfT-13" value="" style="shape=mxgraph.cisco.security.router_firewall;sketch=0;html=1;pointerEvents=1;dashed=0;fillColor=#ffcc99;strokeColor=#36393d;strokeWidth=2;verticalLabelPosition=bottom;verticalAlign=top;align=center;outlineConnect=0;" parent="1" vertex="1">
          <mxGeometry x="175.00000000000006" y="400" width="78" height="62" as="geometry" />
        </mxCell>
        <mxCell id="uTEQr7bpH9WWDBuf_HfT-14" value="" style="shape=mxgraph.cisco.security.router_firewall;sketch=0;html=1;pointerEvents=1;dashed=0;fillColor=#ffcc99;strokeColor=#36393d;strokeWidth=2;verticalLabelPosition=bottom;verticalAlign=top;align=center;outlineConnect=0;" parent="1" vertex="1">
          <mxGeometry x="391" y="400" width="78" height="62" as="geometry" />
        </mxCell>
        <mxCell id="uTEQr7bpH9WWDBuf_HfT-15" value="" style="shape=mxgraph.cisco.security.router_firewall;sketch=0;html=1;pointerEvents=1;dashed=0;fillColor=#ffcc99;strokeColor=#36393d;strokeWidth=2;verticalLabelPosition=bottom;verticalAlign=top;align=center;outlineConnect=0;" parent="1" vertex="1">
          <mxGeometry x="605" y="400" width="78" height="62" as="geometry" />
        </mxCell>
        <mxCell id="uTEQr7bpH9WWDBuf_HfT-16" value="1.2.3.0/26" style="text;html=1;align=center;verticalAlign=middle;resizable=0;points=[];autosize=1;strokeColor=none;fillColor=none;fontColor=light-dark(#000000,#000000);" parent="1" vertex="1">
          <mxGeometry x="389" y="281.5" width="80" height="30" as="geometry" />
        </mxCell>
        <mxCell id="uTEQr7bpH9WWDBuf_HfT-18" value="1.2.3.129/26" style="text;html=1;align=center;verticalAlign=middle;resizable=0;points=[];autosize=1;strokeColor=none;fillColor=none;fontColor=light-dark(#000000,#000000);" parent="1" vertex="1">
          <mxGeometry x="599" y="281.5" width="90" height="30" as="geometry" />
        </mxCell>
        <mxCell id="uTEQr7bpH9WWDBuf_HfT-19" value="1.2.3.65/26" style="text;html=1;align=center;verticalAlign=middle;resizable=0;points=[];autosize=1;strokeColor=none;fillColor=none;fontColor=light-dark(#000000,#000000);" parent="1" vertex="1">
          <mxGeometry x="173" y="281.5" width="80" height="30" as="geometry" />
        </mxCell>
        <mxCell id="uTEQr7bpH9WWDBuf_HfT-20" value="" style="shape=mxgraph.cisco.switches.layer_3_switch;sketch=0;html=1;pointerEvents=1;dashed=0;fillColor=#ffcc99;strokeColor=#36393d;strokeWidth=2;verticalLabelPosition=bottom;verticalAlign=top;align=center;outlineConnect=0;" parent="1" vertex="1">
          <mxGeometry x="174" y="550" width="80" height="80" as="geometry" />
        </mxCell>
        <mxCell id="uTEQr7bpH9WWDBuf_HfT-21" value="" style="endArrow=none;html=1;rounded=0;entryX=0.5;entryY=1;entryDx=0;entryDy=0;entryPerimeter=0;exitX=0.5;exitY=0;exitDx=0;exitDy=0;exitPerimeter=0;" parent="1" source="uTEQr7bpH9WWDBuf_HfT-20" target="uTEQr7bpH9WWDBuf_HfT-13" edge="1">
          <mxGeometry width="50" height="50" relative="1" as="geometry">
            <mxPoint x="440" y="678" as="sourcePoint" />
            <mxPoint x="440" y="590" as="targetPoint" />
          </mxGeometry>
        </mxCell>
        <mxCell id="uTEQr7bpH9WWDBuf_HfT-22" value="" style="shape=mxgraph.cisco.switches.layer_3_switch;sketch=0;html=1;pointerEvents=1;dashed=0;fillColor=#ffcc99;strokeColor=#36393d;strokeWidth=2;verticalLabelPosition=bottom;verticalAlign=top;align=center;outlineConnect=0;" parent="1" vertex="1">
          <mxGeometry x="390" y="550" width="80" height="80" as="geometry" />
        </mxCell>
        <mxCell id="uTEQr7bpH9WWDBuf_HfT-23" value="" style="endArrow=none;html=1;rounded=0;entryX=0.5;entryY=1;entryDx=0;entryDy=0;entryPerimeter=0;exitX=0.5;exitY=0;exitDx=0;exitDy=0;exitPerimeter=0;" parent="1" source="uTEQr7bpH9WWDBuf_HfT-22" target="uTEQr7bpH9WWDBuf_HfT-14" edge="1">
          <mxGeometry width="50" height="50" relative="1" as="geometry">
            <mxPoint x="655" y="678" as="sourcePoint" />
            <mxPoint x="430" y="444" as="targetPoint" />
          </mxGeometry>
        </mxCell>
        <mxCell id="uTEQr7bpH9WWDBuf_HfT-24" value="" style="shape=mxgraph.cisco.switches.layer_3_switch;sketch=0;html=1;pointerEvents=1;dashed=0;fillColor=#ffcc99;strokeColor=#36393d;strokeWidth=2;verticalLabelPosition=bottom;verticalAlign=top;align=center;outlineConnect=0;" parent="1" vertex="1">
          <mxGeometry x="605" y="550" width="80" height="80" as="geometry" />
        </mxCell>
        <mxCell id="uTEQr7bpH9WWDBuf_HfT-25" value="" style="endArrow=none;html=1;rounded=0;exitX=0.5;exitY=0;exitDx=0;exitDy=0;exitPerimeter=0;entryX=0.5;entryY=1;entryDx=0;entryDy=0;entryPerimeter=0;" parent="1" source="uTEQr7bpH9WWDBuf_HfT-24" target="uTEQr7bpH9WWDBuf_HfT-15" edge="1">
          <mxGeometry width="50" height="50" relative="1" as="geometry">
            <mxPoint x="871" y="682" as="sourcePoint" />
            <mxPoint x="710" y="490" as="targetPoint" />
          </mxGeometry>
        </mxCell>
      </root>
    </mxGraphModel>
  </diagram>
</mxfile>
